REM DIRINDEX 1\2,1\3,1\4
REM DIRNAME folder01,folder02,folder03,folder04
TITLE ""
FILE "CD1-21.mp3" MP3
  TRACK 01 AUDIO
    TITLE "2:cjc031_1308"
    INDEX 01 00:00:00
  TRACK 02 AUDIO
    TITLE "3:cjc031_1309"
    INDEX 01 00:01:09
  TRACK 03 AUDIO
    TITLE "2:cjc031_1310"
    INDEX 01 00:02:67
  TRACK 04 AUDIO
    TITLE "3:cjc031_1311"
    INDEX 01 00:04:23
  TRACK 05 AUDIO
    TITLE "2:cjc031_1312"
    INDEX 01 00:05:69
  TRACK 06 AUDIO
    TITLE "3:cjc031_1313"
    INDEX 01 00:07:27
  TRACK 07 AUDIO
    TITLE "2:cjc031_1314"
    INDEX 01 00:08:70
  TRACK 08 AUDIO
    TITLE "3:cjc031_1315"
    INDEX 01 00:10:14
  TRACK 09 AUDIO
    TITLE "2:cjc031_1316"
    INDEX 01 00:11:48
  TRACK 10 AUDIO
    TITLE "3:cjc031_1317"
    INDEX 01 00:12:60
  TRACK 11 AUDIO
    TITLE "2:cjc031_1318"
    INDEX 01 00:14:31
  TRACK 12 AUDIO
    TITLE "3:cjc031_1319"
    INDEX 01 00:15:58
  TRACK 13 AUDIO
    TITLE "2:cjc031_1320"
    INDEX 01 00:17:27
  TRACK 14 AUDIO
    TITLE "3:cjc031_1321"
    INDEX 01 00:18:46
  TRACK 15 AUDIO
    TITLE "2:cjc031_1322"
    INDEX 01 00:20:12
  TRACK 16 AUDIO
    TITLE "3:cjc031_1323"
    INDEX 01 00:21:60
  TRACK 17 AUDIO
    TITLE "2:cjc031_1324"
    INDEX 01 00:23:30
  TRACK 18 AUDIO
    TITLE "3:cjc031_1325"
    INDEX 01 00:24:55
  TRACK 19 AUDIO
    TITLE "2:cjc031_1326"
    INDEX 01 00:26:17
  TRACK 20 AUDIO
    TITLE "3:cjc031_1327"
    INDEX 01 00:27:41
  TRACK 21 AUDIO
    TITLE "2:cjc031_1328"
    INDEX 01 00:29:03
  TRACK 22 AUDIO
    TITLE "3:cjc031_1329"
    INDEX 01 00:30:30
  TRACK 23 AUDIO
    TITLE "2:cjc031_1330"
    INDEX 01 00:31:57
  TRACK 24 AUDIO
    TITLE "3:cjc031_1331"
    INDEX 01 00:33:15
  TRACK 25 AUDIO
    TITLE "2:cjc031_1332"
    INDEX 01 00:34:61
  TRACK 26 AUDIO
    TITLE "3:cjc031_1333"
    INDEX 01 00:35:70
  TRACK 27 AUDIO
    TITLE "2:cjc031_1334"
    INDEX 01 00:37:18
  TRACK 28 AUDIO
    TITLE "3:cjc031_1335"
    INDEX 01 00:38:61
  TRACK 29 AUDIO
    TITLE "2:cjc031_1336"
    INDEX 01 00:40:21
  TRACK 30 AUDIO
    TITLE "3:cjc031_1337"
    INDEX 01 00:41:47
  TRACK 31 AUDIO
    TITLE "2:cjc031_1338"
    INDEX 01 00:43:21
  TRACK 32 AUDIO
    TITLE "3:cjc031_1339"
    INDEX 01 00:44:56
  TRACK 33 AUDIO
    TITLE "2:cjc031_1340"
    INDEX 01 00:46:37
  TRACK 34 AUDIO
    TITLE "3:cjc031_1341"
    INDEX 01 00:47:52
  TRACK 35 AUDIO
    TITLE "2:cjc031_1342"
    INDEX 01 00:49:02
  TRACK 36 AUDIO
    TITLE "3:cjc031_1343"
    INDEX 01 00:50:29
  TRACK 37 AUDIO
    TITLE "2:cjc031_1344"
    INDEX 01 00:51:54
  TRACK 38 AUDIO
    TITLE "3:cjc031_1345"
    INDEX 01 00:53:00
  TRACK 39 AUDIO
    TITLE "2:cjc031_1346"
    INDEX 01 00:54:27
  TRACK 40 AUDIO
    TITLE "3:cjc031_1347"
    INDEX 01 00:55:65
  TRACK 41 AUDIO
    TITLE "2:cjc031_1348"
    INDEX 01 00:57:35
  TRACK 42 AUDIO
    TITLE "3:cjc031_1349"
    INDEX 01 00:58:67
  TRACK 43 AUDIO
    TITLE "2:cjc031_1350"
    INDEX 01 01:00:59
  TRACK 44 AUDIO
    TITLE "3:cjc031_1351"
    INDEX 01 01:02:12
  TRACK 45 AUDIO
    TITLE "2:cjc031_1352"
    INDEX 01 01:03:59
  TRACK 46 AUDIO
    TITLE "3:cjc031_1353"
    INDEX 01 01:05:22
  TRACK 47 AUDIO
    TITLE "2:cjc031_1354"
    INDEX 01 01:06:69
  TRACK 48 AUDIO
    TITLE "3:cjc031_1355"
    INDEX 01 01:08:17
  TRACK 49 AUDIO
    TITLE "2:cjc031_1356"
    INDEX 01 01:09:65
  TRACK 50 AUDIO
    TITLE "3:cjc031_1357"
    INDEX 01 01:11:09
  TRACK 51 AUDIO
    TITLE "2:cjc031_1358"
    INDEX 01 01:12:44
  TRACK 52 AUDIO
    TITLE "3:cjc031_1359"
    INDEX 01 01:13:71
  TRACK 53 AUDIO
    TITLE "2:cjc031_1360"
    INDEX 01 01:15:31
  TRACK 54 AUDIO
    TITLE "3:cjc031_1361"
    INDEX 01 01:16:61
  TRACK 55 AUDIO
    TITLE "2:cjc031_1362"
    INDEX 01 01:18:72
  TRACK 56 AUDIO
    TITLE "3:cjc031_1363"
    INDEX 01 01:20:22
  TRACK 57 AUDIO
    TITLE "2:cjc031_1364"
    INDEX 01 01:21:65
  TRACK 58 AUDIO
    TITLE "3:cjc031_1365"
    INDEX 01 01:23:67
  TRACK 59 AUDIO
    TITLE "2:cjc031_1366"
    INDEX 01 01:25:66
  TRACK 60 AUDIO
    TITLE "3:cjc031_1367"
    INDEX 01 01:26:72
  TRACK 61 AUDIO
    TITLE "2:cjc031_1368"
    INDEX 01 01:28:39
  TRACK 62 AUDIO
    TITLE "3:cjc031_1369"
    INDEX 01 01:29:60
  TRACK 63 AUDIO
    TITLE "2:cjc031_1370"
    INDEX 01 01:31:36
  TRACK 64 AUDIO
    TITLE "3:cjc031_1371"
    INDEX 01 01:32:51
  TRACK 65 AUDIO
    TITLE "2:cjc031_1372"
    INDEX 01 01:34:03
  TRACK 66 AUDIO
    TITLE "3:cjc031_1373"
    INDEX 01 01:35:31
  TRACK 67 AUDIO
    TITLE "2:cjc031_1374"
    INDEX 01 01:36:64
  TRACK 68 AUDIO
    TITLE "3:cjc031_1375"
    INDEX 01 01:38:06
  TRACK 69 AUDIO
    TITLE "2:cjc031_1376"
    INDEX 01 01:39:43
  TRACK 70 AUDIO
    TITLE "3:cjc031_1377"
    INDEX 01 01:40:72
  TRACK 71 AUDIO
    TITLE "2:cjc031_1378"
    INDEX 01 01:42:30
  TRACK 72 AUDIO
    TITLE "3:cjc031_1379"
    INDEX 01 01:43:64
  TRACK 73 AUDIO
    TITLE "2:cjc031_1380"
    INDEX 01 01:45:26
  TRACK 74 AUDIO
    TITLE "3:cjc031_1381"
    INDEX 01 01:46:35
  TRACK 75 AUDIO
    TITLE "2:cjc031_1382"
    INDEX 01 01:47:72
  TRACK 76 AUDIO
    TITLE "3:cjc031_1383"
    INDEX 01 01:49:08
  TRACK 77 AUDIO
    TITLE "2:cjc031_1384"
    INDEX 01 01:50:27
  TRACK 78 AUDIO
    TITLE "3:cjc031_1385"
    INDEX 01 01:51:54
  TRACK 79 AUDIO
    TITLE "2:cjc031_1386"
    INDEX 01 01:53:16
  TRACK 80 AUDIO
    TITLE "3:cjc031_1387"
    INDEX 01 01:54:41
  TRACK 81 AUDIO
    TITLE "0:"
    INDEX 01 01:55:58
